<?xml version="1.0" standalone="no"?>
<!DOCTYPE svg PUBLIC "-//W3C//DTD SVG 20010904//EN"
 "http://www.w3.org/TR/2001/REC-SVG-20010904/DTD/svg10.dtd">
<svg version="1.0" xmlns="http://www.w3.org/2000/svg"
 width="512.000000pt" height="512.000000pt" viewBox="0 0 512.000000 512.000000"
 preserveAspectRatio="xMidYMid meet">
<metadata>
Created by potrace 1.11, written by Peter Selinger 2001-2013
</metadata>
<g transform="translate(0.000000,512.000000) scale(0.100000,-0.100000)"
fill="#000000" stroke="none">
<path d="M2422 3820 c-236 -30 -446 -117 -624 -258 -382 -305 -534 -813 -376
-1261 95 -271 282 -494 529 -633 76 -43 78 -46 52 -53 -43 -10 -241 -107 -306
-148 -31 -20 -62 -37 -67 -37 -6 0 -157 124 -337 276 -179 152 -342 283 -361
291 -102 42 -211 -68 -169 -170 11 -24 103 -109 336 -306 l322 -273 -65 -68
c-124 -132 -227 -300 -296 -483 -53 -140 -58 -174 -30 -210 44 -55 452 -269
641 -335 152 -53 341 -101 460 -117 194 -25 502 -37 667 -25 329 22 644 111
977 276 205 102 286 156 299 202 20 70 -113 384 -235 557 -82 116 -259 292
-374 373 -85 60 -334 192 -362 192 -27 0 -11 16 45 45 193 101 394 308 495
510 298 596 9 1319 -629 1574 -174 70 -416 103 -592 81z m830 -768 c81 -40
139 -102 168 -180 20 -52 21 -73 18 -242 -3 -179 -4 -187 -31 -237 -36 -70
-88 -120 -156 -152 l-56 -26 -635 0 -635 0 -57 27 c-66 31 -127 90 -159 156
-22 43 -24 62 -27 232 -3 169 -2 190 18 242 39 104 141 189 248 208 26 4 315
7 642 7 l595 -2 67 -33z"/>
<path d="M2162 2780 c-86 -53 -95 -200 -16 -269 63 -56 145 -38 185 40 39 78
17 182 -50 226 -42 28 -76 29 -119 3z"/>
<path d="M2835 2785 c-93 -50 -109 -193 -30 -272 27 -27 40 -33 78 -33 78 0
127 62 127 160 0 113 -92 189 -175 145z"/>
</g>
</svg>
